<svg width="31" height="30" viewBox="0 0 31 30" fill="none" xmlns="http://www.w3.org/2000/svg">
<g clip-path="url(#clip0)">
<path d="M21.8852 16.5714C22.51 16.5714 23.0212 16.0893 23.0212 15.5V13.3571H25.2932C25.9181 13.3571 26.4293 12.875 26.4293 12.2857C26.4293 11.6964 25.9181 11.2143 25.2932 11.2143H23.0212V9.07143C23.0212 8.48214 22.51 8 21.8852 8C21.2604 8 20.7491 8.48214 20.7491 9.07143V11.2143H18.4771C17.8523 11.2143 17.3411 11.6964 17.3411 12.2857C17.3411 12.875 17.8523 13.3571 18.4771 13.3571H20.7491V15.5C20.7491 16.0893 21.2604 16.5714 21.8852 16.5714ZM16.205 26.2143C14.9554 26.2143 13.9443 27.1786 13.9443 28.3571C13.9443 29.5357 14.9554 30.5 16.205 30.5C17.4547 30.5 18.4771 29.5357 18.4771 28.3571C18.4771 27.1786 17.4547 26.2143 16.205 26.2143ZM27.5653 26.2143C26.3157 26.2143 25.3046 27.1786 25.3046 28.3571C25.3046 29.5357 26.3157 30.5 27.5653 30.5C28.8149 30.5 29.8373 29.5357 29.8373 28.3571C29.8373 27.1786 28.8149 26.2143 27.5653 26.2143ZM17.4547 20.8571H25.9181C26.7701 20.8571 27.5199 20.4179 27.9061 19.7536L31.7459 13.1857C32.0526 12.6714 31.8481 12.0179 31.3028 11.7286C31.0405 11.5931 30.732 11.5611 30.4447 11.6394C30.1574 11.7176 29.9145 11.8999 29.7692 12.1464L25.9181 18.7143H17.9432L13.4104 9.68214C13.3191 9.49926 13.1745 9.34469 12.9934 9.23653C12.8123 9.12837 12.6023 9.0711 12.388 9.07143H10.5249C9.9001 9.07143 9.38889 9.55357 9.38889 10.1429C9.38889 10.7321 9.9001 11.2143 10.5249 11.2143H11.6609L15.7506 19.3464L14.217 21.9607C13.3877 23.3964 14.4783 25.1429 16.205 25.1429H28.7013C29.3261 25.1429 29.8373 24.6607 29.8373 24.0714C29.8373 23.4821 29.3261 23 28.7013 23H16.205L17.4547 20.8571Z" fill="white"/>
</g>
<defs>
<clipPath id="clip0">
<rect x="0.817444" width="30" height="30" fill="white"/>
</clipPath>
</defs>
</svg>
