<svg width="19" height="17" viewBox="0 0 19 17" fill="none" xmlns="http://www.w3.org/2000/svg">
<path d="M8.31683 14C10.0642 13.9997 11.7612 13.5045 13.1376 12.5933L17.4652 16.2567L18.8571 15.0783L14.5296 11.415C15.6066 10.2497 16.1919 8.81285 16.1923 7.33332C16.1923 3.65749 12.6592 0.666656 8.31683 0.666656C3.9745 0.666656 0.441376 3.65749 0.441376 7.33332C0.441376 11.0092 3.9745 14 8.31683 14ZM8.31683 2.33332C11.5743 2.33332 14.2234 4.57582 14.2234 7.33332C14.2234 10.0908 11.5743 12.3333 8.31683 12.3333C5.05935 12.3333 2.41024 10.0908 2.41024 7.33332C2.41024 4.57582 5.05935 2.33332 8.31683 2.33332Z" fill="white"/>
</svg>
